<svg width="640" height="512" xmlns="http://www.w3.org/2000/svg">
 <!--! Font Awesome Pro 6.4.0 by @fontawesome - https://fontawesome.com License - https://fontawesome.com/license (Commercial License) Copyright 2023 Fonticons, Inc. -->

 <g>
  <title>Layer 1</title>
  <path fill="#0acece" d="m113,1c-26.5,0 -48,21.5 -48,48l0,48l-48,0c-8.8,0 -16,7.2 -16,16s7.2,16 16,16l48,0l208,0c8.8,0 16,7.2 16,16s-7.2,16 -16,16l-208,0l-16,0c-8.8,0 -16,7.2 -16,16s7.2,16 16,16l16,0l176,0c8.8,0 16,7.2 16,16s-7.2,16 -16,16l-176,0l-48,0c-8.8,0 -16,7.2 -16,16s7.2,16 16,16l48,0l144,0c8.8,0 16,7.2 16,16s-7.2,16 -16,16l-144,0l0,128c0,53 43,96 96,96s96,-43 96,-96l128,0c0,53 43,96 96,96s96,-43 96,-96l32,0c17.7,0 32,-14.3 32,-32s-14.3,-32 -32,-32l0,-64l0,-32l0,-18.7c0,-17 -6.7,-33.3 -18.7,-45.3l-77.3,-77.3c-12,-12 -28.3,-18.7 -45.3,-18.7l-50.7,0l0,-48c0,-26.5 -21.5,-48 -48,-48l-256,0zm432,237.3l0,18.7l-128,0l0,-96l50.7,0l77.3,77.3zm-384,130.7a48,48 0 1 1 0,96a48,48 0 1 1 0,-96zm272,48a48,48 0 1 1 96,0a48,48 0 1 1 -96,0z" id="svg_1"/>
 </g>
</svg>